<mxfile host="Electron" modified="2023-08-28T12:58:09.143Z" agent="Mozilla/5.0 (Macintosh; Intel Mac OS X 10_15_7) AppleWebKit/537.36 (KHTML, like Gecko) draw.io/21.2.8 Chrome/112.0.5615.165 Electron/24.2.0 Safari/537.36" etag="wxusJ-5nWrIeXjNNPwpe" version="21.2.8" type="device">
  <diagram name="Page-1" id="aU8mdLDrFYo-eYV7uGZg">
    <mxGraphModel dx="1207" dy="808" grid="1" gridSize="10" guides="1" tooltips="1" connect="1" arrows="1" fold="1" page="1" pageScale="1" pageWidth="850" pageHeight="1100" math="0" shadow="0">
      <root>
        <mxCell id="0" />
        <mxCell id="1" parent="0" />
        <mxCell id="Z-N2-yIpIPC_vRLjOIPU-1" value="" style="endArrow=none;html=1;rounded=0;" edge="1" parent="1" source="Z-N2-yIpIPC_vRLjOIPU-7">
          <mxGeometry width="50" height="50" relative="1" as="geometry">
            <mxPoint x="150" y="400" as="sourcePoint" />
            <mxPoint x="150" y="130" as="targetPoint" />
          </mxGeometry>
        </mxCell>
        <mxCell id="Z-N2-yIpIPC_vRLjOIPU-2" value="aConcreteSubject" style="text;html=1;strokeColor=none;fillColor=none;align=center;verticalAlign=middle;whiteSpace=wrap;rounded=0;" vertex="1" parent="1">
          <mxGeometry x="120" y="90" width="60" height="30" as="geometry" />
        </mxCell>
        <mxCell id="Z-N2-yIpIPC_vRLjOIPU-3" value="" style="endArrow=none;html=1;rounded=0;" edge="1" parent="1" source="Z-N2-yIpIPC_vRLjOIPU-10">
          <mxGeometry width="50" height="50" relative="1" as="geometry">
            <mxPoint x="308" y="400" as="sourcePoint" />
            <mxPoint x="308" y="130" as="targetPoint" />
          </mxGeometry>
        </mxCell>
        <mxCell id="Z-N2-yIpIPC_vRLjOIPU-4" value="aConcreteObserver" style="text;html=1;strokeColor=none;fillColor=none;align=center;verticalAlign=middle;whiteSpace=wrap;rounded=0;" vertex="1" parent="1">
          <mxGeometry x="278" y="90" width="60" height="30" as="geometry" />
        </mxCell>
        <mxCell id="Z-N2-yIpIPC_vRLjOIPU-5" value="" style="endArrow=none;html=1;rounded=0;" edge="1" parent="1" source="Z-N2-yIpIPC_vRLjOIPU-12">
          <mxGeometry width="50" height="50" relative="1" as="geometry">
            <mxPoint x="468" y="400" as="sourcePoint" />
            <mxPoint x="468" y="130" as="targetPoint" />
          </mxGeometry>
        </mxCell>
        <mxCell id="Z-N2-yIpIPC_vRLjOIPU-6" value="anotherConcreteObserver" style="text;html=1;strokeColor=none;fillColor=none;align=center;verticalAlign=middle;whiteSpace=wrap;rounded=0;" vertex="1" parent="1">
          <mxGeometry x="438" y="90" width="60" height="30" as="geometry" />
        </mxCell>
        <mxCell id="Z-N2-yIpIPC_vRLjOIPU-8" value="" style="endArrow=none;html=1;rounded=0;" edge="1" parent="1" target="Z-N2-yIpIPC_vRLjOIPU-7">
          <mxGeometry width="50" height="50" relative="1" as="geometry">
            <mxPoint x="150" y="400" as="sourcePoint" />
            <mxPoint x="150" y="130" as="targetPoint" />
          </mxGeometry>
        </mxCell>
        <mxCell id="Z-N2-yIpIPC_vRLjOIPU-7" value="" style="rounded=0;whiteSpace=wrap;html=1;" vertex="1" parent="1">
          <mxGeometry x="145" y="140" width="10" height="250" as="geometry" />
        </mxCell>
        <mxCell id="Z-N2-yIpIPC_vRLjOIPU-9" value="" style="rounded=0;whiteSpace=wrap;html=1;" vertex="1" parent="1">
          <mxGeometry x="303" y="140" width="10" height="40" as="geometry" />
        </mxCell>
        <mxCell id="Z-N2-yIpIPC_vRLjOIPU-11" value="" style="endArrow=none;html=1;rounded=0;" edge="1" parent="1" target="Z-N2-yIpIPC_vRLjOIPU-10">
          <mxGeometry width="50" height="50" relative="1" as="geometry">
            <mxPoint x="308" y="400" as="sourcePoint" />
            <mxPoint x="308" y="130" as="targetPoint" />
          </mxGeometry>
        </mxCell>
        <mxCell id="Z-N2-yIpIPC_vRLjOIPU-10" value="" style="rounded=0;whiteSpace=wrap;html=1;" vertex="1" parent="1">
          <mxGeometry x="303" y="270" width="10" height="40" as="geometry" />
        </mxCell>
        <mxCell id="Z-N2-yIpIPC_vRLjOIPU-13" value="" style="endArrow=none;html=1;rounded=0;" edge="1" parent="1" target="Z-N2-yIpIPC_vRLjOIPU-12">
          <mxGeometry width="50" height="50" relative="1" as="geometry">
            <mxPoint x="468" y="400" as="sourcePoint" />
            <mxPoint x="468" y="130" as="targetPoint" />
          </mxGeometry>
        </mxCell>
        <mxCell id="Z-N2-yIpIPC_vRLjOIPU-12" value="" style="rounded=0;whiteSpace=wrap;html=1;" vertex="1" parent="1">
          <mxGeometry x="463" y="350" width="10" height="40" as="geometry" />
        </mxCell>
        <mxCell id="Z-N2-yIpIPC_vRLjOIPU-14" value="" style="endArrow=blockThin;html=1;rounded=0;endFill=1;exitX=0;exitY=0.25;exitDx=0;exitDy=0;entryX=1.141;entryY=0.039;entryDx=0;entryDy=0;entryPerimeter=0;" edge="1" parent="1" source="Z-N2-yIpIPC_vRLjOIPU-9" target="Z-N2-yIpIPC_vRLjOIPU-7">
          <mxGeometry width="50" height="50" relative="1" as="geometry">
            <mxPoint x="230" y="240" as="sourcePoint" />
            <mxPoint x="180" y="150" as="targetPoint" />
          </mxGeometry>
        </mxCell>
        <mxCell id="Z-N2-yIpIPC_vRLjOIPU-15" value="SetState()" style="edgeLabel;html=1;align=center;verticalAlign=middle;resizable=0;points=[];" vertex="1" connectable="0" parent="Z-N2-yIpIPC_vRLjOIPU-14">
          <mxGeometry x="-0.7372" y="1" relative="1" as="geometry">
            <mxPoint x="-7" y="-10" as="offset" />
          </mxGeometry>
        </mxCell>
        <mxCell id="Z-N2-yIpIPC_vRLjOIPU-16" value="" style="endArrow=blockThin;html=1;rounded=0;endFill=1;exitX=0.986;exitY=0.19;exitDx=0;exitDy=0;exitPerimeter=0;edgeStyle=orthogonalEdgeStyle;elbow=vertical;" edge="1" parent="1">
          <mxGeometry width="50" height="50" relative="1" as="geometry">
            <mxPoint x="154.86" y="194.5" as="sourcePoint" />
            <mxPoint x="155" y="217" as="targetPoint" />
            <Array as="points">
              <mxPoint x="200" y="194" />
              <mxPoint x="200" y="217" />
              <mxPoint x="155" y="217" />
            </Array>
          </mxGeometry>
        </mxCell>
        <mxCell id="Z-N2-yIpIPC_vRLjOIPU-19" value="Notify()" style="edgeLabel;html=1;align=center;verticalAlign=middle;resizable=0;points=[];" vertex="1" connectable="0" parent="Z-N2-yIpIPC_vRLjOIPU-16">
          <mxGeometry x="-0.6574" y="1" relative="1" as="geometry">
            <mxPoint y="-8" as="offset" />
          </mxGeometry>
        </mxCell>
        <mxCell id="Z-N2-yIpIPC_vRLjOIPU-20" value="" style="endArrow=blockThin;html=1;rounded=0;endFill=1;exitX=1.102;exitY=0.541;exitDx=0;exitDy=0;entryX=0.029;entryY=0.149;entryDx=0;entryDy=0;entryPerimeter=0;exitPerimeter=0;" edge="1" parent="1" source="Z-N2-yIpIPC_vRLjOIPU-7" target="Z-N2-yIpIPC_vRLjOIPU-10">
          <mxGeometry width="50" height="50" relative="1" as="geometry">
            <mxPoint x="335" y="160" as="sourcePoint" />
            <mxPoint x="166" y="160" as="targetPoint" />
          </mxGeometry>
        </mxCell>
        <mxCell id="Z-N2-yIpIPC_vRLjOIPU-21" value="Update()" style="edgeLabel;html=1;align=center;verticalAlign=middle;resizable=0;points=[];" vertex="1" connectable="0" parent="Z-N2-yIpIPC_vRLjOIPU-20">
          <mxGeometry x="-0.7372" y="1" relative="1" as="geometry">
            <mxPoint x="2" y="-9" as="offset" />
          </mxGeometry>
        </mxCell>
        <mxCell id="Z-N2-yIpIPC_vRLjOIPU-22" value="" style="endArrow=blockThin;html=1;rounded=0;endFill=1;exitX=0;exitY=0.75;exitDx=0;exitDy=0;entryX=1.094;entryY=0.638;entryDx=0;entryDy=0;entryPerimeter=0;" edge="1" parent="1" source="Z-N2-yIpIPC_vRLjOIPU-10" target="Z-N2-yIpIPC_vRLjOIPU-7">
          <mxGeometry width="50" height="50" relative="1" as="geometry">
            <mxPoint x="166" y="285" as="sourcePoint" />
            <mxPoint x="336" y="286" as="targetPoint" />
          </mxGeometry>
        </mxCell>
        <mxCell id="Z-N2-yIpIPC_vRLjOIPU-23" value="GetState()" style="edgeLabel;html=1;align=center;verticalAlign=middle;resizable=0;points=[];" vertex="1" connectable="0" parent="Z-N2-yIpIPC_vRLjOIPU-22">
          <mxGeometry x="-0.7372" y="1" relative="1" as="geometry">
            <mxPoint x="-8" y="-10" as="offset" />
          </mxGeometry>
        </mxCell>
        <mxCell id="Z-N2-yIpIPC_vRLjOIPU-24" value="" style="endArrow=blockThin;html=1;rounded=0;endFill=1;exitX=1.038;exitY=0.882;exitDx=0;exitDy=0;entryX=0;entryY=0.25;entryDx=0;entryDy=0;exitPerimeter=0;" edge="1" parent="1" source="Z-N2-yIpIPC_vRLjOIPU-7" target="Z-N2-yIpIPC_vRLjOIPU-12">
          <mxGeometry width="50" height="50" relative="1" as="geometry">
            <mxPoint x="180" y="360" as="sourcePoint" />
            <mxPoint x="349" y="361" as="targetPoint" />
          </mxGeometry>
        </mxCell>
        <mxCell id="Z-N2-yIpIPC_vRLjOIPU-25" value="Update()" style="edgeLabel;html=1;align=center;verticalAlign=middle;resizable=0;points=[];" vertex="1" connectable="0" parent="Z-N2-yIpIPC_vRLjOIPU-24">
          <mxGeometry x="-0.7372" y="1" relative="1" as="geometry">
            <mxPoint x="-18" y="-9" as="offset" />
          </mxGeometry>
        </mxCell>
        <mxCell id="Z-N2-yIpIPC_vRLjOIPU-26" value="" style="endArrow=blockThin;html=1;rounded=0;endFill=1;exitX=0;exitY=0.75;exitDx=0;exitDy=0;entryX=1.03;entryY=0.958;entryDx=0;entryDy=0;entryPerimeter=0;" edge="1" parent="1" source="Z-N2-yIpIPC_vRLjOIPU-12" target="Z-N2-yIpIPC_vRLjOIPU-7">
          <mxGeometry width="50" height="50" relative="1" as="geometry">
            <mxPoint x="325" y="380" as="sourcePoint" />
            <mxPoint x="170" y="380" as="targetPoint" />
          </mxGeometry>
        </mxCell>
        <mxCell id="Z-N2-yIpIPC_vRLjOIPU-27" value="GetState()" style="edgeLabel;html=1;align=center;verticalAlign=middle;resizable=0;points=[];" vertex="1" connectable="0" parent="Z-N2-yIpIPC_vRLjOIPU-26">
          <mxGeometry x="-0.7372" y="1" relative="1" as="geometry">
            <mxPoint x="-8" y="-10" as="offset" />
          </mxGeometry>
        </mxCell>
      </root>
    </mxGraphModel>
  </diagram>
</mxfile>
